<svg width="92" height="60" fill="none" xmlns="http://www.w3.org/2000/svg"><path opacity=".1" d="M6.89 24.802c3.805 6.09 11.825 7.94 17.914 4.136 6.089-3.804 7.94-11.825 4.136-17.913-3.805-6.09-11.825-7.94-17.914-4.136-6.089 3.805-7.94 11.825-4.136 17.913z" fill="url(#paint0_linear)"/><path opacity=".2" d="M68.002 60c6.627 0 12-5.373 12-12s-5.373-12-12-12-12 5.373-12 12 5.372 12 12 12z" fill="url(#paint1_linear)"/><path opacity=".2" d="M80.48 44.404a6 6 0 1 0 5.818-10.495 6 6 0 0 0-5.817 10.495z" fill="url(#paint2_linear)"/><path fill-rule="evenodd" clip-rule="evenodd" d="M71.103 18c-.437 0-.79-.368-.79-.82 0-2.263 1.772-4.103 3.95-4.103.436 0 .79.368.79.82 0 .454-.354.821-.79.821-1.307 0-2.37 1.104-2.37 2.461 0 .453-.354.82-.79.82zm-3.263-3.077c-.436 0-.79-.368-.79-.82 0-.454.354-.821.79-.821 1.307 0 2.37-1.104 2.37-2.462 0-.452.354-.82.79-.82.438 0 .79.368.79.82 0 2.262-1.771 4.103-3.95 4.103z" fill="#573FA3"/><path fill-rule="evenodd" clip-rule="evenodd" d="M71 18c-.436 0-.79-.368-.79-.82 0-1.358-1.063-2.462-2.37-2.462-.436 0-.79-.367-.79-.82 0-.453.354-.82.79-.82 2.179 0 3.95 1.84 3.95 4.101 0 .453-.352.82-.79.82zm3.263-3.077c-2.178 0-3.95-1.84-3.95-4.103 0-.452.353-.82.79-.82.436 0 .79.368.79.82 0 1.357 1.063 2.462 2.37 2.462.436 0 .79.367.79.82 0 .453-.354.82-.79.82z" fill="#573FA3"/><path fill-rule="evenodd" clip-rule="evenodd" d="M30.678 42c1.14-.584 4.245-3.05 8.578-7.102l.477-.446h6.042c4.57 0 8.276-3.721 8.276-8.311v-7.83c0-4.59-3.705-8.311-8.276-8.311H30.327c-4.571 0-8.276 3.72-8.276 8.31v9.571c0 3.63 2.93 6.57 6.543 6.57h1.693l-.039 1.7c-.055 2.44.051 4.241.3 5.365.042.191.087.353.13.484z" fill="#1D2A5E"/><path fill-rule="evenodd" clip-rule="evenodd" d="M30.678 42c1.14-.584 4.245-3.05 8.578-7.102l.477-.446h6.042c4.57 0 8.276-3.721 8.276-8.311v-7.83c0-4.59-3.705-8.311-8.276-8.311H30.327c-4.571 0-8.276 3.72-8.276 8.31v9.571c0 3.63 2.93 6.57 6.543 6.57h1.693l-.039 1.7c-.055 2.44.051 4.241.3 5.365.042.191.087.353.13.484z" fill="url(#paint3_linear)"/><path clip-rule="evenodd" d="M30.678 42c1.14-.584 4.245-3.05 8.578-7.102l.477-.446h6.042c4.57 0 8.276-3.721 8.276-8.311v-7.83c0-4.59-3.705-8.311-8.276-8.311H30.327c-4.571 0-8.276 3.72-8.276 8.31v9.571c0 3.63 2.93 6.57 6.543 6.57h1.693l-.039 1.7c-.055 2.44.051 4.241.3 5.365.042.191.087.353.13.484z" stroke="#FF48BC" stroke-width="3"/><path clip-rule="evenodd" d="M30.678 42c1.14-.584 4.245-3.05 8.578-7.102l.477-.446h6.042c4.57 0 8.276-3.721 8.276-8.311v-7.83c0-4.59-3.705-8.311-8.276-8.311H30.327c-4.571 0-8.276 3.72-8.276 8.31v9.571c0 3.63 2.93 6.57 6.543 6.57h1.693l-.039 1.7c-.055 2.44.051 4.241.3 5.365.042.191.087.353.13.484z" stroke="#D84D97" stroke-width="3"/><circle cx="38.054" cy="22.138" r="1.655" fill="#FF48BC"/><circle cx="45.225" cy="22.138" r="1.655" fill="#FF48BC"/><circle cx="30.327" cy="22.138" r="1.655" fill="#FF48BC"/><path fill-rule="evenodd" clip-rule="evenodd" d="M62.58 51c-.854-.438-3.183-2.287-6.433-5.327l-.358-.334h-4.531c-3.428 0-6.207-2.79-6.207-6.233v-5.873c0-3.442 2.779-6.233 6.207-6.233h11.586c3.428 0 6.207 2.79 6.207 6.233v7.178c0 2.722-2.197 4.928-4.907 4.928h-1.27l.029 1.275c.04 1.829-.038 3.18-.225 4.023a3.798 3.798 0 0 1-.098.363z" fill="#1D2A5E"/><path fill-rule="evenodd" clip-rule="evenodd" d="M62.58 51c-.854-.438-3.183-2.287-6.433-5.327l-.358-.334h-4.531c-3.428 0-6.207-2.79-6.207-6.233v-5.873c0-3.442 2.779-6.233 6.207-6.233h11.586c3.428 0 6.207 2.79 6.207 6.233v7.178c0 2.722-2.197 4.928-4.907 4.928h-1.27l.029 1.275c.04 1.829-.038 3.18-.225 4.023a3.798 3.798 0 0 1-.098.363z" fill="url(#paint4_linear)"/><path clip-rule="evenodd" d="M62.58 51c-.854-.438-3.183-2.287-6.433-5.327l-.358-.334h-4.531c-3.428 0-6.207-2.79-6.207-6.233v-5.873c0-3.442 2.779-6.233 6.207-6.233h11.586c3.428 0 6.207 2.79 6.207 6.233v7.178c0 2.722-2.197 4.928-4.907 4.928h-1.27l.029 1.275c.04 1.829-.038 3.18-.225 4.023a3.798 3.798 0 0 1-.098.363z" stroke="#FF48BC" stroke-width="3"/><path clip-rule="evenodd" d="M62.58 51c-.854-.438-3.183-2.287-6.433-5.327l-.358-.334h-4.531c-3.428 0-6.207-2.79-6.207-6.233v-5.873c0-3.442 2.779-6.233 6.207-6.233h11.586c3.428 0 6.207 2.79 6.207 6.233v7.178c0 2.722-2.197 4.928-4.907 4.928h-1.27l.029 1.275c.04 1.829-.038 3.18-.225 4.023a3.798 3.798 0 0 1-.098.363z" stroke="#D84D97" stroke-width="3"/><circle cx="57.049" cy="36.143" r="1.143" fill="#FF48BC"/><circle cx="62.194" cy="36.143" r="1.143" fill="#FF48BC"/><circle cx="51.908" cy="36.143" r="1.143" fill="#FF48BC"/><path d="M24.55 50a2.5 2.5 0 1 0 0-5 2.5 2.5 0 0 0 0 5z" fill="#512670" fill-opacity=".7"/><path opacity=".5" d="M10.05 15a4 4 0 1 0 0-8 4 4 0 0 0 0 8z" fill="url(#paint5_linear)"/><path opacity=".5" clip-rule="evenodd" d="M8.05 51l1.123 1.998L8.051 55l2.002-1.123L12.05 55l-1.119-2.002L12.051 51l-1.998 1.119L8.05 51z" stroke="#D84D97" stroke-width="2" stroke-linecap="round" stroke-linejoin="round"/><defs><linearGradient id="paint0_linear" x1="11.026" y1="6.889" x2="24.805" y2="28.939" gradientUnits="userSpaceOnUse"><stop stop-color="#18173B" stop-opacity="0"/><stop offset="1" stop-color="#539FC8"/></linearGradient><linearGradient id="paint1_linear" x1="73.973" y1="41.608" x2="50.6" y2="66.794" gradientUnits="userSpaceOnUse"><stop stop-color="#253370"/><stop offset="1" stop-color="#6C36AF"/></linearGradient><linearGradient id="paint2_linear" x1="78.142" y1="36.248" x2="88.638" y2="42.066" gradientUnits="userSpaceOnUse"><stop stop-color="#18173B" stop-opacity="0"/><stop offset="1" stop-color="#539FC8"/></linearGradient><linearGradient id="paint3_linear" x1="-4.059" y1="-6.897" x2="69.395" y2="42" gradientUnits="userSpaceOnUse"><stop stop-color="#D75CAF"/><stop offset="1" stop-color="#171544"/></linearGradient><linearGradient id="paint4_linear" x1="88.633" y1="14.327" x2="33.543" y2="51" gradientUnits="userSpaceOnUse"><stop stop-color="#D75CAF"/><stop offset="1" stop-color="#171544"/></linearGradient><linearGradient id="paint5_linear" x1="-.477" y1="2.776" x2="17.887" y2="15" gradientUnits="userSpaceOnUse"><stop stop-color="#D75CAF"/><stop offset="1" stop-color="#171544"/></linearGradient></defs></svg>